<svg width="100" height="118" viewBox="0 0 100 118" fill="none" xmlns="http://www.w3.org/2000/svg">
<path d="M33.713 51.3561L57.5255 28.8608L50.6561 22L26.8496 44.4904C24.2083 47.1342 22.1122 50.5344 21.3671 54.2839C20.63 57.993 21.0082 61.8377 22.4543 65.3322C23.9005 68.8267 26.3501 71.8151 29.4949 73.9183C32.6335 76.0174 36.3307 77.1447 39.8699 77.1447C43.654 77.1447 47.3523 76.0215 50.4971 73.9183C53.6419 71.8151 56.0915 68.8267 57.5377 65.3322C58.9824 61.8412 59.3549 57.9577 58.6189 54.2536C58.2009 52.6657 56.8254 51.1233 56.0619 49.6703C57.0634 49.3095 58.8915 49.1201 59.9756 49.1201C62.4423 49.1201 64.8097 50.1007 66.5567 51.8493C68.3463 53.6405 69.2873 55.5223 69.2873 57.9452C69.2873 60.4157 68.3092 62.7837 66.5708 64.5313L40.5652 88.5251C39.178 89.9133 38.7638 91.9997 39.5164 93.812C40.269 95.624 42.0394 96.8043 44.002 96.8043H65.0475V87.1013H55.915L64.6633 79.2605L73.4312 71.4C76.9979 67.83 79 62.9899 79 57.9452C79 52.8697 76.9751 48.5419 73.4312 44.9948C69.8641 41.4244 65.0242 40.1801 59.9756 40.1801C54.9271 40.1801 50.0871 42.1876 46.5201 45.7579C44.6279 47.6518 44.6279 50.7186 46.5201 52.6125C47.8415 53.9351 48.7416 54.8592 49.1043 56.2047C49.4598 58.0255 49.2711 59.9111 48.5618 61.625C47.8485 63.3487 46.6412 64.8205 45.094 65.8552C43.5468 66.8899 41.7288 67.4417 39.8699 67.4417C38.037 67.4417 36.4682 66.9053 34.8981 65.8552C33.3508 64.8205 32.1435 63.3487 31.4302 61.625C30.7168 59.9013 30.53 58.004 30.8938 56.1734C31.2434 54.4142 32.3445 52.7291 33.713 51.3561Z" fill="#F5F5F5"/>
</svg>
