<svg width="100" height="118" viewBox="0 0 100 118" fill="none" xmlns="http://www.w3.org/2000/svg">
<path d="M67.0934 75.7194C71.3621 71.4506 73.9999 65.5572 73.9999 59.0399C73.9999 49.0136 67.7297 40.4947 58.9142 37.0847L48.6038 47.3951C49.1969 47.3024 49.7961 47.2469 50.4139 47.2469C56.925 47.2469 62.2069 52.5225 62.2069 59.0399C62.2069 62.2955 60.8849 65.2422 58.7536 67.3796C58.7536 67.3796 32.2028 93.9151 26.7104 99.4228H73.9999V87.6298H55.183L67.0934 75.7194Z" fill="#F5F5F5"/>
<path d="M52.1558 70.7031C51.5874 70.7896 51.0067 70.839 50.4199 70.839C43.9087 70.839 38.6268 65.5572 38.6268 59.046C38.6268 55.7904 39.9488 52.8437 42.0801 50.7063C42.0801 50.7063 57.8234 34.2991 65.8762 26.8546L57.5611 18.5396L33.7465 42.3542C29.4716 46.6229 26.8276 52.5225 26.8276 59.0398C26.8276 69.0475 33.0732 77.5541 41.8701 80.9765L52.1558 70.7031Z" fill="white"/>
</svg>
